<svg width="49" height="49" viewBox="0 0 49 49" fill="none" xmlns="http://www.w3.org/2000/svg">
<g opacity="0.2" clip-path="url(#clip0_655_189)">
<path d="M18.3904 27.6612C19.5424 27.6612 20.4384 28.0132 21.0784 28.7172C21.7824 29.4212 22.1344 30.3172 22.1344 31.4052C22.1344 33.9652 20.6624 35.2452 17.7184 35.2452C15.7984 35.2452 14.2944 34.5412 13.2064 33.1332C12.1184 31.6612 11.5744 29.5812 11.5744 26.8932C11.5744 24.3332 12.1504 21.9652 13.3024 19.7892C14.4544 17.5492 16.1504 15.3412 18.3904 13.1652C18.4544 13.1012 18.5504 13.0692 18.6784 13.0692C18.8704 13.0692 19.0304 13.1652 19.1584 13.3572C19.2864 13.5492 19.2864 13.7092 19.1584 13.8372C16.0224 17.0372 14.4544 20.8132 14.4544 25.1652C14.4544 26.9572 14.7744 28.2692 15.4144 29.1012C15.9904 28.1412 16.9824 27.6612 18.3904 27.6612ZM32.5024 27.6612C33.6544 27.6612 34.5504 28.0132 35.1904 28.7172C35.8944 29.4212 36.2464 30.3172 36.2464 31.4052C36.2464 33.9652 34.7744 35.2452 31.8304 35.2452C29.9104 35.2452 28.4064 34.5412 27.3184 33.1332C26.2304 31.6612 25.6864 29.5812 25.6864 26.8932C25.6864 24.3332 26.2624 21.9652 27.4144 19.7892C28.5664 17.5492 30.2624 15.3412 32.5024 13.1652C32.5664 13.1012 32.6624 13.0692 32.7904 13.0692C32.9824 13.0692 33.1424 13.1652 33.2704 13.3572C33.3984 13.5492 33.3984 13.7092 33.2704 13.8372C30.1344 17.0372 28.5664 20.8132 28.5664 25.1652C28.5664 26.9572 28.8864 28.2692 29.5264 29.1012C30.1024 28.1412 31.0944 27.6612 32.5024 27.6612Z" fill="white"/>
</g>
<defs>
<clipPath id="clip0_655_189">
<rect width="48" height="48" fill="white" transform="translate(0.698975 0.698975)"/>
</clipPath>
</defs>
</svg>
