<svg width="48" height="48" viewBox="0 0 48 48" fill="none" xmlns="http://www.w3.org/2000/svg">
<g opacity="0.2" clip-path="url(#clip0_655_191)">
<path d="M30.3086 21.0378C29.1566 21.0378 28.2606 20.6858 27.6206 19.9818C26.9166 19.2778 26.5646 18.3818 26.5646 17.2938C26.5646 14.7338 28.0366 13.4538 30.9806 13.4538C32.9006 13.4538 34.4046 14.1578 35.4926 15.5658C36.5806 17.0378 37.1246 19.1178 37.1246 21.8058C37.1246 24.3658 36.5486 26.7338 35.3966 28.9098C34.2446 31.1498 32.5486 33.3578 30.3086 35.5338C30.2446 35.5978 30.1486 35.6298 30.0206 35.6298C29.8286 35.6298 29.6686 35.5338 29.5406 35.3418C29.4126 35.1498 29.4126 34.9898 29.5406 34.8618C32.6766 31.6618 34.2446 27.8858 34.2446 23.5338C34.2446 21.7418 33.9246 20.4298 33.2846 19.5978C32.7086 20.5578 31.7166 21.0378 30.3086 21.0378ZM16.1966 21.0378C15.0446 21.0378 14.1486 20.6858 13.5086 19.9818C12.8046 19.2778 12.4526 18.3818 12.4526 17.2938C12.4526 14.7338 13.9246 13.4538 16.8686 13.4538C18.7886 13.4538 20.2926 14.1578 21.3806 15.5658C22.4686 17.0378 23.0126 19.1178 23.0126 21.8058C23.0126 24.3658 22.4366 26.7338 21.2846 28.9098C20.1326 31.1498 18.4366 33.3578 16.1966 35.5338C16.1326 35.5978 16.0366 35.6298 15.9086 35.6298C15.7166 35.6298 15.5566 35.5338 15.4286 35.3418C15.3006 35.1498 15.3006 34.9898 15.4286 34.8618C18.5646 31.6618 20.1326 27.8858 20.1326 23.5338C20.1326 21.7418 19.8126 20.4298 19.1726 19.5978C18.5966 20.5578 17.6046 21.0378 16.1966 21.0378Z" fill="white"/>
</g>
<defs>
<clipPath id="clip0_655_191">
<rect width="48" height="48" fill="white" transform="translate(48 48) rotate(-180)"/>
</clipPath>
</defs>
</svg>
